<svg width="2278" height="2035" xmlns="http://www.w3.org/2000/svg" xmlns:xlink="http://www.w3.org/1999/xlink" xml:space="preserve" overflow="hidden"><g transform="translate(-994 -220)"><g><g><g><g><path d="M486.754 306.171C452.279 306.171 425.192 278.263 425.192 244.608 425.192 210.954 453.1 183.046 486.754 183.046 521.229 183.046 548.317 210.954 548.317 244.608 548.317 278.263 520.409 306.171 486.754 306.171ZM625.475 206.029C622.192 194.538 618.088 183.867 612.342 174.017L625.475 135.438 595.925 105.888 557.346 119.021C547.496 113.275 536.825 109.171 525.333 105.888L507.275 69.7709 466.233 69.7709 448.175 105.888C436.683 109.171 426.013 113.275 416.163 119.021L377.583 105.888 348.033 135.438 361.167 174.017C355.421 183.867 351.317 194.538 348.033 206.029L311.917 224.088 311.917 265.129 348.033 283.188C351.317 294.679 355.421 305.35 361.167 315.2L348.033 353.779 376.763 382.508 415.342 369.375C425.192 375.121 435.863 379.225 447.354 382.508L465.413 418.625 506.454 418.625 524.513 382.508C536.004 379.225 546.675 375.121 556.525 369.375L595.104 382.508 624.654 353.779 611.521 315.2C617.267 305.35 622.192 293.858 625.475 283.188L661.592 265.129 661.592 224.088 625.475 206.029Z" fill="#FF6A00" fill-rule="nonzero" fill-opacity="1" transform="matrix(1.00127 0 0 1 2137 754)"/><path d="M301.246 604.954C266.771 604.954 239.683 577.046 239.683 543.392 239.683 508.917 267.592 481.829 301.246 481.829 335.721 481.829 362.808 509.738 362.808 543.392 362.808 577.046 335.721 604.954 301.246 604.954L301.246 604.954ZM426.833 472.8 439.967 434.221 410.417 404.671 371.838 417.804C361.988 412.058 350.496 407.954 339.825 404.671L321.767 368.554 280.725 368.554 262.667 404.671C251.175 407.954 240.504 412.058 230.654 417.804L192.075 404.671 163.346 433.4 175.658 471.979C169.913 481.829 165.808 493.321 162.525 503.992L126.408 522.05 126.408 563.092 162.525 581.15C165.808 592.642 169.913 603.313 175.658 613.163L163.346 651.742 192.075 680.471 230.654 668.159C240.504 673.904 251.175 678.009 262.667 681.292L280.725 717.409 321.767 717.409 339.825 681.292C351.317 678.009 361.988 673.904 371.838 668.159L410.417 681.292 439.146 651.742 426.833 613.984C432.579 604.133 436.683 593.463 439.967 581.971L476.083 563.913 476.083 522.871 439.967 504.813C436.683 493.321 432.579 482.65 426.833 472.8Z" fill="#FF6A00" fill-rule="nonzero" fill-opacity="1" transform="matrix(1.00127 0 0 1 2137 754)"/></g></g></g><g><g><g><path d="M394 492.5C339.825 492.5 295.5 448.175 295.5 394 295.5 339.825 339.825 295.5 394 295.5 448.175 295.5 492.5 339.825 492.5 394 492.5 448.175 448.175 492.5 394 492.5ZM615.625 332.437C610.7 314.379 603.312 297.142 594.283 281.546L614.804 219.983 568.017 173.196 506.454 193.717C490.037 184.687 472.8 177.3 454.742 172.375L426.833 114.917 361.167 114.917 332.437 172.375C314.379 177.3 297.142 184.687 281.546 193.717L219.983 173.196 173.196 219.983 193.717 281.546C184.687 297.962 177.3 315.2 172.375 333.258L114.917 361.167 114.917 426.833 172.375 455.562C177.3 473.621 184.687 490.858 193.717 506.454L173.196 568.017 219.983 614.804 281.546 594.283C297.962 603.312 315.2 610.7 333.258 615.625L361.987 673.083 427.654 673.083 456.383 615.625C474.442 610.7 491.679 603.312 507.275 594.283L568.837 614.804 615.625 568.017 595.104 506.454C604.133 490.037 611.521 472.8 616.446 454.742L673.904 426.012 673.904 360.346 615.625 332.437Z" fill="#FF6A00" fill-rule="nonzero" fill-opacity="1" transform="matrix(1.00127 0 0 1 2480 978)"/></g></g></g><g><g><g><path d="M1373.42 1397.33 1572.58 1397.33C1589.51 1397.33 1602.46 1410.28 1602.46 1427.21 1602.46 1444.14 1589.51 1457.08 1572.58 1457.08L1373.42 1457.08C1356.49 1457.08 1343.54 1444.14 1343.54 1427.21 1343.54 1410.28 1356.49 1397.33 1373.42 1397.33Z" fill="#FF6A00" fill-rule="nonzero" fill-opacity="1"/><path d="M1373.42 1496.92 1572.58 1496.92C1589.51 1496.92 1602.46 1509.86 1602.46 1526.79 1602.46 1543.72 1589.51 1556.67 1572.58 1556.67L1373.42 1556.67C1356.49 1556.67 1343.54 1543.72 1343.54 1526.79 1343.54 1509.86 1356.49 1496.92 1373.42 1496.92Z" fill="#FF6A00" fill-rule="nonzero" fill-opacity="1"/><path d="M1408.27 1596.5C1411.26 1630.36 1439.14 1656.25 1473 1656.25 1506.86 1656.25 1534.74 1630.36 1537.73 1596.5L1408.27 1596.5Z" fill="#FF6A00" fill-rule="nonzero" fill-opacity="1"/><path d="M1473 819.75C1473 819.75 1473 819.75 1473 819.75 1473 819.75 1473 819.75 1473 819.75 1331.59 820.746 1217.07 934.271 1214.08 1075.68L1214.08 1084.64C1215.08 1115.51 1221.05 1145.39 1232.01 1174.27 1242.96 1201.15 1257.9 1226.05 1276.82 1247.96 1300.72 1273.85 1326.61 1324.64 1337.57 1346.55 1340.55 1353.52 1347.53 1357.5 1355.49 1357.5L1590.51 1357.5C1598.48 1357.5 1605.45 1353.52 1608.43 1346.55 1619.39 1324.64 1645.28 1273.85 1669.18 1247.96 1688.1 1226.05 1704.03 1201.15 1713.99 1174.27 1724.95 1145.39 1730.92 1115.51 1731.92 1084.64L1731.92 1075.68C1728.93 934.271 1614.41 820.746 1473 819.75ZM1672.17 1083.65C1671.17 1107.55 1666.19 1131.45 1658.23 1153.35 1650.26 1173.27 1639.3 1192.19 1624.37 1208.12 1601.46 1236.01 1581.55 1265.88 1566.61 1297.75L1473 1297.75 1380.39 1297.75C1364.45 1265.88 1344.54 1236.01 1322.63 1208.12 1308.69 1192.19 1296.74 1173.27 1288.77 1153.35 1279.81 1131.45 1275.83 1107.55 1274.83 1083.65L1274.83 1075.68C1276.82 967.133 1365.45 879.5 1474 878.504 1474 878.504 1474 878.504 1474 878.504 1474 878.504 1474 878.504 1474 878.504 1582.54 879.5 1671.17 966.138 1673.16 1075.68L1673.16 1083.65Z" fill="#FF6A00" fill-rule="nonzero" fill-opacity="1"/></g></g></g><path d="M1493.04 523.157 1507.14 509.408 1521.97 495.66 1537.07 482.358 1552.43 469.504 1568.04 457.099 1583.89 445.143 1599.97 433.636 1616.26 422.579 1632.77 411.972 1649.49 401.817 1666.39 392.112 1683.48 382.858 1700.75 374.056 1718.18 365.705 1735.77 357.806 1753.5 350.359 1771.38 343.363 1789.39 336.819 1807.52 330.727 1826.05 324.996 1862.54 315.15 1899.67 307.029 1937.07 300.714 1974.69 296.203 2012.44 293.497 2050.26 292.595 2088.08 293.497 2125.83 296.203 2163.44 300.714 2200.85 307.029 2237.98 315.15 2274.47 324.996 2293 330.727 2311.13 336.819 2333.35 344.894 2387.71 378.233 2335 464.19 2284.98 433.516 2294.11 437.922 2277.26 431.798 2278.42 432.204 2261.46 426.502 2262.62 426.879 2245.55 421.6 2247.31 422.109 2212.88 412.818 2215.25 413.395 2180.49 405.793 2182.87 406.253 2147.84 400.341 2150.24 400.686 2115.02 396.463 2117.42 396.692 2082.07 394.158 2084.47 394.273 2049.05 393.428 2051.46 393.428 2016.04 394.273 2018.45 394.158 1983.1 396.692 1985.5 396.463 1950.28 400.686 1952.67 400.341 1917.65 406.253 1920.03 405.793 1885.27 413.395 1887.63 412.818 1853.2 422.109 1854.96 421.6 1837.89 426.879 1839.06 426.502 1822.09 432.204 1823.25 431.798 1806.4 437.922 1807.55 437.487 1790.83 444.033 1791.97 443.569 1775.37 450.537 1776.51 450.043 1760.05 457.434 1761.18 456.911 1744.87 464.724 1745.99 464.172 1729.84 472.407 1730.94 471.825 1714.95 480.483 1716.05 479.872 1700.23 488.952 1701.31 488.313 1685.68 497.815 1686.74 497.148 1671.3 507.072 1672.35 506.376 1657.1 516.723 1658.14 515.999 1643.09 526.769 1644.11 526.017 1629.28 537.209 1630.29 536.431 1615.67 548.045 1616.66 547.24 1602.28 559.276 1603.24 558.446 1589.1 570.904 1590.05 570.049 1576.15 582.93 1577.07 582.05 1563.43 595.353ZM2401.99 267.047 2572.28 559.255 2236.34 520.159Z" fill="#FF6A00" fill-rule="nonzero" fill-opacity="1"/><path d="M2607.48 1951.84 2593.38 1965.59 2578.54 1979.34 2563.44 1992.64 2548.08 2005.5 2532.47 2017.9 2516.63 2029.86 2500.55 2041.36 2484.25 2052.42 2467.74 2063.03 2451.03 2073.18 2434.12 2082.89 2417.03 2092.14 2399.77 2100.94 2382.34 2109.29 2364.75 2117.19 2347.01 2124.64 2329.13 2131.64 2311.13 2138.18 2293 2144.27 2274.47 2150 2237.98 2159.85 2200.85 2167.97 2163.44 2174.29 2125.83 2178.8 2088.08 2181.5 2050.26 2182.4 2012.44 2181.5 1974.69 2178.8 1937.07 2174.29 1899.67 2167.97 1862.54 2159.85 1826.05 2150 1807.52 2144.27 1789.39 2138.18 1767.17 2130.11 1712.8 2096.77 1765.52 2010.81 1815.54 2041.48 1806.4 2037.08 1823.25 2043.2 1822.09 2042.8 1839.06 2048.5 1837.89 2048.12 1854.96 2053.4 1853.2 2052.89 1887.63 2062.18 1885.27 2061.6 1920.03 2069.21 1917.65 2068.75 1952.67 2074.66 1950.28 2074.31 1985.5 2078.54 1983.1 2078.31 2018.45 2080.84 2016.04 2080.73 2051.46 2081.57 2049.05 2081.57 2084.47 2080.73 2082.07 2080.84 2117.42 2078.31 2115.02 2078.54 2150.24 2074.31 2147.84 2074.66 2182.87 2068.75 2180.49 2069.21 2215.25 2061.6 2212.88 2062.18 2247.31 2052.89 2245.55 2053.4 2262.62 2048.12 2261.46 2048.5 2278.42 2042.8 2277.26 2043.2 2294.11 2037.08 2292.96 2037.51 2309.69 2030.97 2308.54 2031.43 2325.14 2024.46 2324 2024.96 2340.46 2017.57 2339.33 2018.09 2355.64 2010.28 2354.52 2010.83 2370.68 2002.59 2369.57 2003.17 2385.56 1994.52 2384.47 1995.13 2400.28 1986.05 2399.2 1986.69 2414.84 1977.18 2413.77 1977.85 2429.22 1967.93 2428.16 1968.62 2443.42 1958.28 2442.38 1959 2457.42 1948.23 2456.4 1948.98 2471.23 1937.79 2470.23 1938.57 2484.84 1926.96 2483.85 1927.76 2498.24 1915.72 2497.27 1916.55 2511.41 1904.1 2510.47 1904.95 2524.37 1892.07 2523.44 1892.95 2537.08 1879.65ZM1698.52 2207.95 1528.23 1915.74 1864.17 1954.84Z" fill="#FF6A00" fill-rule="nonzero" fill-opacity="1"/></g></g></svg>