<svg width="2090" height="2054" xmlns="http://www.w3.org/2000/svg" xmlns:xlink="http://www.w3.org/1999/xlink" xml:space="preserve" overflow="hidden"><g transform="translate(-1155 -210)"><g><path d="M0 0 0.000360892 126.318" stroke="#FF6A00" stroke-width="13.75" stroke-linecap="butt" stroke-linejoin="miter" stroke-miterlimit="8" stroke-opacity="1" fill="none" fill-rule="evenodd" transform="matrix(1 0 0 -1 2203 530.318)"/><path d="M0 0 0.000360892 126.318" stroke="#FF6A00" stroke-width="13.75" stroke-linecap="butt" stroke-linejoin="miter" stroke-miterlimit="8" stroke-opacity="1" fill="none" fill-rule="evenodd" transform="matrix(0.965926 -0.258819 -0.258819 -0.965926 2018.64 555.075)"/><path d="M0 0 0.000360892 126.318" stroke="#FF6A00" stroke-width="13.75" stroke-linecap="butt" stroke-linejoin="miter" stroke-miterlimit="8" stroke-opacity="1" fill="none" fill-rule="evenodd" transform="matrix(0.866025 -0.5 -0.5 -0.866025 1790.46 658.555)"/><path d="M0 0 0.000360892 126.318" stroke="#FF6A00" stroke-width="13.75" stroke-linecap="butt" stroke-linejoin="miter" stroke-miterlimit="8" stroke-opacity="1" fill="none" fill-rule="evenodd" transform="matrix(0.707107 -0.707107 -0.707107 -0.707107 1581.5 823.089)"/><path d="M0 0 0.000360892 126.318" stroke="#FF6A00" stroke-width="13.75" stroke-linecap="butt" stroke-linejoin="miter" stroke-miterlimit="8" stroke-opacity="1" fill="none" fill-rule="evenodd" transform="matrix(0.258819 -0.965926 -0.965926 -0.258819 1456.37 1041.38)"/><path d="M2374.8 555.075 2407.49 433.061" stroke="#FF6A00" stroke-width="13.75" stroke-linecap="butt" stroke-linejoin="miter" stroke-miterlimit="8" stroke-opacity="1" fill="none" fill-rule="evenodd"/><path d="M2602.98 658.555 2666.14 549.16" stroke="#FF6A00" stroke-width="13.75" stroke-linecap="butt" stroke-linejoin="miter" stroke-miterlimit="8" stroke-opacity="1" fill="none" fill-rule="evenodd"/><path d="M2811.94 823.089 2901.26 733.768" stroke="#FF6A00" stroke-width="13.75" stroke-linecap="butt" stroke-linejoin="miter" stroke-miterlimit="8" stroke-opacity="1" fill="none" fill-rule="evenodd"/><path d="M2937.07 1041.38 3059.09 1008.68" stroke="#FF6A00" stroke-width="13.75" stroke-linecap="butt" stroke-linejoin="miter" stroke-miterlimit="8" stroke-opacity="1" fill="none" fill-rule="evenodd"/><path d="M2219.81 1107.2C2312.89 1135.53 2365.37 1233.94 2337.04 1327.01 2308.71 1420.08 2210.3 1472.57 2117.22 1444.24 2024.15 1415.91 1971.67 1317.49 2000 1224.42 2028.13 1131.99 2125.47 1079.47 2218.17 1106.71L2191.02 1199.14C2148.72 1186.71 2104.37 1210.93 2091.94 1253.22 2079.51 1295.51 2103.73 1339.87 2146.02 1352.3 2188.31 1364.72 2232.67 1340.51 2245.1 1298.22 2257.44 1256.21 2233.64 1212.11 2191.76 1199.36Z" fill="#FF6A00" fill-rule="evenodd" fill-opacity="1"/><path d="M2128.44 1166.89 2380.79 797.242 2258.32 1227.73Z" fill="#FF6A00" fill-rule="evenodd" fill-opacity="1"/><path d="M1176.5 1238C1176.5 682.125 1634.96 231.5 2200.5 231.5 2766.04 231.5 3224.5 682.125 3224.5 1238 3224.5 1793.87 2766.04 2244.5 2200.5 2244.5 1634.96 2244.5 1176.5 1793.87 1176.5 1238Z" stroke="#FF6A00" stroke-width="38.9583" stroke-linecap="butt" stroke-linejoin="miter" stroke-miterlimit="8" stroke-opacity="1" fill="none" fill-rule="evenodd"/><path d="M2174 1979 2174 2105.32" stroke="#FF6A00" stroke-width="13.75" stroke-linecap="butt" stroke-linejoin="miter" stroke-miterlimit="8" stroke-opacity="1" fill="none" fill-rule="evenodd"/><path d="M1990.44 1954.06 1957.75 2076.07" stroke="#FF6A00" stroke-width="13.75" stroke-linecap="butt" stroke-linejoin="miter" stroke-miterlimit="8" stroke-opacity="1" fill="none" fill-rule="evenodd"/><path d="M1762.25 1850.58 1699.1 1959.97" stroke="#FF6A00" stroke-width="13.75" stroke-linecap="butt" stroke-linejoin="miter" stroke-miterlimit="8" stroke-opacity="1" fill="none" fill-rule="evenodd"/><path d="M1553.3 1686.04 1463.98 1775.36" stroke="#FF6A00" stroke-width="13.75" stroke-linecap="butt" stroke-linejoin="miter" stroke-miterlimit="8" stroke-opacity="1" fill="none" fill-rule="evenodd"/><path d="M1428.16 1467.75 1306.15 1500.45" stroke="#FF6A00" stroke-width="13.75" stroke-linecap="butt" stroke-linejoin="miter" stroke-miterlimit="8" stroke-opacity="1" fill="none" fill-rule="evenodd"/><path d="M0 0 0.000360892 126.318" stroke="#FF6A00" stroke-width="13.75" stroke-linecap="butt" stroke-linejoin="miter" stroke-miterlimit="8" stroke-opacity="1" fill="none" fill-rule="evenodd" transform="matrix(-0.965926 0.258819 0.258819 0.965926 2346.6 1954.06)"/><path d="M0 0 0.000360892 126.318" stroke="#FF6A00" stroke-width="13.75" stroke-linecap="butt" stroke-linejoin="miter" stroke-miterlimit="8" stroke-opacity="1" fill="none" fill-rule="evenodd" transform="matrix(-0.866025 0.5 0.5 0.866025 2574.78 1850.58)"/><path d="M0 0 0.000360892 126.318" stroke="#FF6A00" stroke-width="13.75" stroke-linecap="butt" stroke-linejoin="miter" stroke-miterlimit="8" stroke-opacity="1" fill="none" fill-rule="evenodd" transform="matrix(-0.707107 0.707107 0.707107 0.707107 2783.74 1686.04)"/><path d="M0 0 0.000360892 126.318" stroke="#FF6A00" stroke-width="13.75" stroke-linecap="butt" stroke-linejoin="miter" stroke-miterlimit="8" stroke-opacity="1" fill="none" fill-rule="evenodd" transform="matrix(-0.258819 0.965926 0.965926 0.258819 2908.87 1467.75)"/></g></g></svg>