<svg width="2237" height="1696" xmlns="http://www.w3.org/2000/svg" xmlns:xlink="http://www.w3.org/1999/xlink" xml:space="preserve" overflow="hidden"><g transform="translate(-1012 -485)"><g><path d="M1017 962 1331 962 1331 1277 1017 1277ZM1056.25 1001.25 1056.25 1237.75 1291.75 1237.75 1291.75 1001.25Z" fill="#FFFFFF" fill-rule="evenodd" fill-opacity="1"/><path d="M2306 942 2620 942 2620 1256 2306 1256ZM2345.25 981.25 2345.25 1216.75 2580.75 1216.75 2580.75 981.25Z" fill="#FFFFFF" fill-rule="evenodd" fill-opacity="1"/><path d="M1475 1523 1790 1523 1790 1838 1475 1838ZM1514.38 1562.38 1514.38 1798.62 1750.62 1798.62 1750.62 1562.38Z" fill="#FFFFFF" fill-rule="evenodd" fill-opacity="1"/><path d="M1897.49 788.936 1952.75 733.789 2047.5 828.736 2142.25 733.789 2197.51 788.936 2102.65 884 2197.51 979.064 2142.25 1034.21 2047.5 939.264 1952.75 1034.21 1897.49 979.064 1992.35 884Z" fill="#FFFFFF" fill-rule="evenodd" fill-opacity="1"/><path d="M2211.49 1742.94 2266.75 1687.79 2361.5 1782.74 2456.25 1687.79 2511.51 1742.94 2416.65 1838 2511.51 1933.06 2456.25 1988.21 2361.5 1893.26 2266.75 1988.21 2211.49 1933.06 2306.35 1838Z" fill="#FFFFFF" fill-rule="evenodd" fill-opacity="1"/><path d="M2630.49 541.936 2685.75 486.789 2780.5 581.736 2875.25 486.789 2930.51 541.936 2835.65 637 2930.51 732.064 2875.25 787.211 2780.5 692.265 2685.75 787.211 2630.49 732.064 2725.35 637Z" fill="#FFFFFF" fill-rule="evenodd" fill-opacity="1"/><path d="M0.237903-10.3098 19.3947-9.8677 38.7399-8.54472 57.9962-6.37575 77.1272-3.38996 96.0965 0.383712 114.868 4.91659 133.406 10.1803 151.674 16.1465 169.637 22.7874 187.258 30.0754 204.502 37.9828 221.333 46.4827 237.715 55.5479 253.612 65.1519 268.988 75.2683 283.807 85.8708 298.032 96.9336 311.627 108.431 324.555 120.339 336.78 132.631 348.263 145.283 358.967 158.272 368.853 171.572 377.881 185.161 386.013 199.015 393.205 213.109 399.594 227.832 404.841 247.85 384.891 253.079 379.844 233.827 380.359 235.317 374.413 221.615 374.687 222.197 367.779 208.66 368.071 209.193 360.239 195.849 360.544 196.336 351.824 183.213 352.137 183.658 342.567 170.783 342.886 171.189 332.503 158.59 332.825 158.962 321.665 146.666 321.989 147.008 310.09 135.043 310.416 135.356 297.815 123.75 298.142 124.039 284.875 112.818 285.203 113.085 271.308 102.278 271.638 102.525 257.151 92.1593 257.483 92.3876 242.442 82.4911 242.777 82.7028 227.218 73.3028 227.558 73.4992 211.518 64.6232 211.862 64.8054 195.378 56.481 195.729 56.6496 178.838 48.9044 179.196 49.0601 161.936 41.9217 162.301 42.0647 144.708 35.5605 145.083 35.6908 127.194 29.8486 127.579 29.966 109.432 24.8132 109.828 24.9173 91.4586 20.4816 91.8671 20.5715 73.3131 16.8805 73.735 16.9553 55.0331 14.0365 55.4691 14.095 36.6562 11.976 37.1069 12.0168 18.2201 10.7251 18.6858 10.7464-0.237903 10.3098ZM423.537 234.926 403.838 301.24 362.606 245.692Z" fill="#FFFFFF" fill-rule="nonzero" fill-opacity="1" transform="matrix(1.83697e-16 1 1 -1.83697e-16 1174.5 1277.5)"/><path d="M0.341741-10.3068 16.1294-9.78337 32.2062-8.20356 48.1937-5.61605 64.0597-2.05799 79.7735 2.43375 95.305 7.82274 110.625 14.0731 125.704 21.1495 140.515 29.0171 155.028 37.6418 169.215 46.9897 183.048 57.0275 196.498 67.7222 209.537 79.0413 222.136 90.9525 234.267 103.424 245.9 116.423 257.005 129.919 267.555 143.879 277.517 158.274 286.863 173.071 295.563 188.239 303.586 203.748 310.9 219.566 317.475 235.662 323.279 252.005 328.28 268.565 332.446 285.308 335.744 302.203 338.141 319.218 339.604 336.321 340.097 353.408 339.822 370.368 339.011 387.223 337.681 404.005 335.85 420.682 333.534 437.223 330.753 453.596 327.521 469.772 323.857 485.717 319.778 501.402 315.299 516.794 310.437 531.864 305.209 546.579 299.629 560.909 293.715 574.824 287.481 588.291 280.943 601.28 274.113 613.761 267.008 625.703 259.639 637.075 252.019 647.845 244.16 657.984 236.071 667.458 227.762 676.237 219.24 684.285 209.666 692.272 196.628 698.031 188.294 679.165 200.006 673.992 197.567 675.506 205.784 668.651 205.31 669.072 213.391 661.44 212.982 661.848 220.911 653.472 220.557 653.865 228.316 644.777 228.009 645.155 235.581 635.387 235.312 635.749 242.68 625.334 242.445 625.682 249.592 614.652 249.384 614.987 256.294 603.375 256.109 603.698 262.764 591.536 262.6 591.849 268.983 579.169 268.835 579.473 274.93 566.308 274.797 566.606 280.586 552.987 280.467 553.28 285.933 539.24 285.825 539.529 290.952 525.101 290.855 525.387 295.624 510.603 295.537 510.889 299.933 495.781 299.854 496.066 303.86 480.668 303.789 480.954 307.387 465.297 307.325 465.586 310.498 449.702 310.444 449.995 313.176 433.917 313.129 434.215 315.402 417.975 315.364 418.278 317.162 401.909 317.133 402.22 318.437 385.753 318.417 386.072 319.213 369.541 319.202 369.869 319.471 353.306 319.474 353.77 318.996 337.207 319.029 337.788 317.615 321.257 317.678 321.817 315.359 305.35 315.449 305.887 312.253 289.518 312.367 290.032 308.327 273.792 308.462 274.284 303.606 258.205 303.76 258.675 298.119 242.791 298.29 243.239 291.895 227.582 292.081 228.01 284.961 212.612 285.161 213.022 277.347 197.914 277.561 198.307 269.082 183.523 269.308 183.899 260.195 169.472 260.435 169.833 250.718 155.794 250.969 156.142 240.679 142.523 240.944 142.859 230.11 129.693 230.388 130.018 219.041 117.337 219.333 117.651 207.503 105.488 207.81 105.792 195.527 94.1793 195.851 94.473 183.145 83.4432 183.487 83.7275 170.389 73.3125 170.751 73.5872 157.29 63.8194 157.672 64.0841 143.879 54.996 144.285 55.2499 130.19 46.8737 130.621 47.1157 116.254 39.4838 116.711 39.7122 102.103 32.857 102.588 33.0697 87.7688 27.0235 88.284 27.2179 73.2833 22.0131 73.8295 22.1857 58.6779 17.8547 59.2556 18.0019 43.9832 14.577 44.5922 14.6945 29.2293 12.208 29.8684 12.291 14.445 10.7755 15.1118 10.8192-0.341741 10.3068ZM213.107 713.841 144.274 706.946 191.09 656.016Z" fill="#FFFFFF" fill-rule="nonzero" fill-opacity="1" transform="matrix(1.83697e-16 1 1 -1.83697e-16 1633.5 1838.5)"/><path d="M2620.94 1089.2 2637.94 1089.92 2655.31 1092.11 2672.56 1095.7 2689.67 1100.63 2706.59 1106.84 2723.29 1114.29 2739.74 1122.92 2755.92 1132.67 2771.79 1143.5 2787.33 1155.37 2802.51 1168.22 2817.3 1182 2831.67 1196.68 2845.59 1212.21 2859.03 1228.53 2871.97 1245.62 2884.36 1263.42 2896.2 1281.9 2907.43 1300.99 2918.03 1320.68 2927.97 1340.9 2937.22 1361.61 2945.74 1382.78 2953.51 1404.36 2960.49 1426.31 2966.64 1448.57 2971.94 1471.12 2976.35 1493.9 2979.86 1517.02 2981.24 1534.2 2960.68 1535.85 2959.33 1519.03 2959.42 1519.75 2955.99 1497.2 2956.06 1497.61 2951.73 1475.24 2951.82 1475.64 2946.61 1453.49 2946.71 1453.87 2940.66 1431.99 2940.77 1432.37 2933.91 1410.8 2934.04 1411.16 2926.4 1389.95 2926.54 1390.31 2918.16 1369.49 2918.31 1369.85 2909.22 1349.48 2909.38 1349.82 2899.61 1329.95 2899.78 1330.29 2889.36 1310.95 2889.55 1311.28 2878.52 1292.52 2878.72 1292.85 2867.1 1274.72 2867.33 1275.05 2855.16 1257.58 2855.4 1257.91 2842.71 1241.15 2842.97 1241.48 2829.8 1225.48 2830.08 1225.81 2816.46 1210.62 2816.77 1210.95 2802.72 1196.6 2803.06 1196.93 2788.63 1183.47 2789 1183.8 2774.21 1171.28 2774.61 1171.6 2759.5 1160.06 2759.94 1160.38 2744.54 1149.87 2745.02 1150.18 2729.36 1140.74 2729.9 1141.04 2714.01 1132.71 2714.59 1132.99 2698.51 1125.82 2699.15 1126.09 2682.91 1120.12 2683.61 1120.35 2667.23 1115.63 2667.98 1115.82 2651.51 1112.39 2652.32 1112.53 2635.78 1110.44 2636.63 1110.51 2620.06 1109.8ZM3001.21 1522.83 2974.13 1586.49 2939.45 1526.63Z" fill="#FFFFFF" fill-rule="nonzero" fill-opacity="1"/><g><g><g><path d="M3199.46 1505.87 2953.59 1738.29 2835.46 1617.28 2794.64 1656.18 2951.67 1817.53 2992.97 1779.11 3238.36 1546.21Z" fill="#FFFFFF" fill-rule="nonzero" fill-opacity="1"/></g></g></g><path d="M0.38761-14.8908 27.9462-14.1734 30.9107-13.9467 28.6391 15.7582 26.0482 15.5601 26.7964 15.5984-0.38761 14.8908ZM61.3064-11.3459 82.904-8.63887 91.5056-7.14431 86.4057 22.2076 78.1515 20.7734 78.8489 20.8776 57.6014 18.2145ZM121.439-1.3567 135.259 1.7239 151.029 6.04807 143.151 34.7792 127.728 30.5502 128.426 30.7236 114.958 27.7213ZM180.176 15.1551 183.325 16.1922 194.618 20.4236 205.437 24.8316 209.282 26.5344 197.218 53.7742 193.578 52.1619 193.989 52.3367 183.573 48.093 183.968 48.2471 173.153 44.1953 173.72 44.3946 170.856 43.4515ZM237.361 40.3943 244.415 44.4335 252.972 49.8027 261.01 55.3566 264.013 57.6577 245.895 81.3064 243.182 79.2277 243.773 79.658 236.308 74.4996 236.859 74.8627 228.836 69.8285 229.351 70.1374 222.557 66.2474ZM288.44 80.8186 292.519 86.1714 296.843 93.0596 300.378 100.237 303.033 107.704 304.202 113.123 275.081 119.408 274.115 114.93 274.64 116.776 272.597 111.031 273.27 112.623 270.457 106.912 271.204 108.25 267.646 102.584 268.414 103.692 264.744 98.876ZM309.57 138.427 310.225 139.758 309.478 138.419 313.035 144.086 312.268 142.977 316.543 148.587 315.789 147.675 320.755 153.218 320.034 152.467 325.146 157.427 304.401 178.809 298.915 173.487 293.206 167.116 288.163 160.498 283.839 153.61 282.844 151.591ZM346.425 173.439 351.846 176.84 351.331 176.532 359.886 181.43 359.403 181.165 368.463 185.917 368.008 185.688 370.983 187.121 358.056 213.962 354.851 212.419 345.321 207.42 336.267 202.236 330.591 198.674ZM397.028 198.539 407.529 202.474 406.962 202.274 424.608 208.086 415.288 236.382 397.357 230.477 386.575 226.437ZM452.54 216.005 452.954 216.119 452.256 215.945 477.313 221.531 476.036 221.304 479.694 221.79 475.766 251.322 471.465 250.75 445.423 244.945 444.662 244.736ZM495.401 194.592 580.682 246.669 487.852 283.648Z" fill="#FFFFFF" fill-rule="nonzero" fill-opacity="1" transform="matrix(1 0 0 -1 1331 1119.67)"/><path d="M0.29018-14.893 30.0762-14.3126 29.4958 15.4734-0.29018 14.893ZM60.3895-12.641 64.1955-12.4212 90.6089-9.90909 87.7882 19.7487 61.6502 17.2628 62.2018 17.305 58.672 17.1011ZM120.703-6.14525 127.835-5.20526 150.64-1.37459 145.705 28.0055 123.16 24.2185 123.682 24.2966 116.81 23.3911ZM180.394 4.38113 190.434 6.42825 209.935 11.1038 202.99 40.0744 183.736 35.4583 184.233 35.5685 174.442 33.5722ZM239.237 18.7789 251.51 22.1632 268.272 27.396 259.395 55.8342 242.87 50.6757 243.349 50.8165 231.318 47.4985ZM297.011 36.9485 310.583 41.688 325.424 47.4344 314.667 75.2162 300.058 69.5598 300.526 69.7318 287.189 65.0745ZM353.477 58.8555 367.174 64.6963 381.133 71.2189 368.522 98.2095 354.792 91.7942 355.255 92.001 341.791 86.2597ZM408.353 84.5359 420.803 90.8867 435.089 98.8233 420.621 124.866 406.565 117.057 407.03 117.305 394.815 111.074ZM461.287 114.103 470.989 119.965 486.885 130.403 470.532 155.305 454.871 145.021 455.344 145.319 445.882 139.603ZM511.808 147.755 517.253 151.643 535.969 166.199 517.68 189.716 499.204 175.347 499.692 175.711 494.495 172ZM559.752 186.244 578.232 203.437 581.912 207.208 560.592 228.016 557.162 224.503 557.676 225.004 539.459 208.056ZM602.868 229.437 612.552 240.438 622.419 252.978 599.007 271.4 589.394 259.184 589.919 259.815 580.506 249.121ZM640.47 278.047 641.198 279.13 647.412 289.041 653.229 299.039 656.399 304.946 630.148 319.032 627.1 313.351 627.35 313.799 621.786 304.236 622.041 304.658 616.084 295.158 616.343 295.556 615.747 294.67ZM669.869 335.808 672.66 348.035 643.615 354.664 640.825 342.437ZM698.784 327.544 673.523 424.222 611.337 346.006Z" fill="#FFFFFF" fill-rule="nonzero" fill-opacity="1" transform="matrix(1 0 0 -1 1790 1680.22)"/><path d="M0.230616-14.894 30.0187-14.4328 29.5575 15.3553-0.230616 14.894ZM60.2387-13.4862 88.2105-12.2138 90.4267-12.0485 88.2117 17.6607 86.2107 17.5115 86.6413 17.5373 58.8849 16.2747ZM120.136-9.83352 131.44-8.99075 150.222-7.04955 147.159 22.5843 128.589 20.6649 129.013 20.7026 117.921 19.8757ZM180.159-3.81152 194.246-2.04738 209.906 0.1465 205.772 29.65 190.22 27.4712 190.436 27.4999 176.457 25.7492ZM239.786 4.80501 253.611 7.17006 269.339 10.1183 263.85 39.3999 248.238 36.4735 248.471 36.5152 234.762 34.1701ZM299.001 16.2859 308.424 18.386 325.495 22.5234 328.534 23.324 320.945 52.1328 318.048 51.3698 318.334 51.4421 301.541 47.3719 301.809 47.4343 292.52 45.3642ZM357.892 31.4341 372.558 36.0098 386.737 40.8395 386.985 40.932 376.569 68.8435 376.523 68.8262 376.928 68.9708 363.135 64.2725 363.501 64.392 349.019 59.8737ZM415.629 52.3438 424.272 56.2827 435.015 61.76 443.384 66.5897 428.492 92.3924 420.459 87.7563 421.139 88.1255 411.031 82.9724 411.62 83.2563 403.274 79.453ZM470.577 88.5176 474.357 93.0826 478.966 100.795 482.036 109.256 483.075 117.741 482.711 125.254 482.388 127.501 452.899 123.267 453.122 121.715 452.988 123.111 453.256 117.568 453.349 120.099 452.671 114.556 453.454 117.827 451.446 112.295 452.662 114.855 449.369 109.345 450.683 111.204 447.631 107.518ZM470.53 160.876 468.358 164.518 464.249 170.511 459.727 176.335 454.698 182.126 449.71 187.059 428.76 165.878 433.347 161.342 432.575 162.165 436.965 157.11 436.446 157.742 440.446 152.589 439.928 153.299 443.521 148.059 443.011 148.856 444.941 145.619ZM424.799 207.637 418.265 212.172 403.772 220.683 397.299 223.887 384.083 197.188 390.079 194.219 389.144 194.725 402.692 186.768 401.742 187.376 407.812 183.162ZM366.849 234.718 360.125 236.672 351.809 208.065 358.533 206.11ZM379.115 263.393 282.856 236.578 362.063 175.66Z" fill="#FFFFFF" fill-rule="nonzero" fill-opacity="1" transform="matrix(1 0 0 -1 2620 996.579)"/></g></g></svg>