<svg width="1907" height="2173" xmlns="http://www.w3.org/2000/svg" xmlns:xlink="http://www.w3.org/1999/xlink" xml:space="preserve" overflow="hidden"><g transform="translate(-1420 -114)"><g><path d="M1423 829C1423 435.221 1742.22 116 2136 116 2529.78 116 2849 435.221 2849 829 2849 1222.78 2529.78 1542 2136 1542 1742.22 1542 1423 1222.78 1423 829ZM1530.02 829C1530.02 1163.67 1801.33 1434.98 2136 1434.98 2470.67 1434.98 2741.98 1163.67 2741.98 829 2741.98 494.327 2470.67 223.022 2136 223.022 1801.33 223.022 1530.02 494.327 1530.02 829Z" fill="#FFFFFF" fill-rule="evenodd" fill-opacity="1"/><path d="M2454.09 1370.79 2588.81 1262.03 3326.58 2175.94 3191.86 2284.69Z" fill="#FFFFFF" fill-rule="nonzero" fill-opacity="1"/><path d="M1821 639 1899.21 622.206 1916 544 1932.79 622.206 2011 639 1932.79 655.794 1916 734 1899.21 655.794Z" fill="#FFFFFF" fill-rule="evenodd" fill-opacity="1"/><path d="M2136 898 2214.21 881.206 2231 803 2247.79 881.206 2326 898 2247.79 914.794 2231 993 2214.21 914.794Z" fill="#FFFFFF" fill-rule="evenodd" fill-opacity="1"/><path d="M1867 834 1945.21 817.206 1962 739 1978.79 817.206 2057 834 1978.79 850.794 1962 929 1945.21 850.794Z" fill="#FFFFFF" fill-rule="evenodd" fill-opacity="1"/><path d="M2104 688 2182.21 671.206 2199 593 2215.79 671.206 2294 688 2215.79 704.794 2199 783 2182.21 704.794Z" fill="#FFFFFF" fill-rule="evenodd" fill-opacity="1"/><path d="M1867 1097C1867 1084.85 1876.85 1075 1889 1075 1901.15 1075 1911 1084.85 1911 1097 1911 1109.15 1901.15 1119 1889 1119 1876.85 1119 1867 1109.15 1867 1097Z" fill="#FFFFFF" fill-rule="evenodd" fill-opacity="1"/><path d="M1939 1169C1939 1156.85 1948.85 1147 1961 1147 1973.15 1147 1983 1156.85 1983 1169 1983 1181.15 1973.15 1191 1961 1191 1948.85 1191 1939 1181.15 1939 1169Z" fill="#FFFFFF" fill-rule="evenodd" fill-opacity="1"/><path d="M2128 1097C2128 1084.85 2137.85 1075 2150 1075 2162.15 1075 2172 1084.85 2172 1097 2172 1109.15 2162.15 1119 2150 1119 2137.85 1119 2128 1109.15 2128 1097Z" fill="#FFFFFF" fill-rule="evenodd" fill-opacity="1"/><path d="M2092 752C2092 742.059 2100.06 734 2110 734 2119.94 734 2128 742.059 2128 752 2128 761.941 2119.94 770 2110 770 2100.06 770 2092 761.941 2092 752Z" fill="#FFFFFF" fill-rule="evenodd" fill-opacity="1"/><path d="M2136 864.5C2136 854.283 2144.06 846 2154 846 2163.94 846 2172 854.283 2172 864.5 2172 874.717 2163.94 883 2154 883 2144.06 883 2136 874.717 2136 864.5Z" fill="#FFFFFF" fill-rule="evenodd" fill-opacity="1"/><path d="M2265 808C2265 798.059 2273.06 790 2283 790 2292.94 790 2301 798.059 2301 808 2301 817.941 2292.94 826 2283 826 2273.06 826 2265 817.941 2265 808Z" fill="#FFFFFF" fill-rule="evenodd" fill-opacity="1"/><path d="M2253 267.5C2253 260.044 2258.82 254 2266 254 2273.18 254 2279 260.044 2279 267.5 2279 274.956 2273.18 281 2266 281 2258.82 281 2253 274.956 2253 267.5Z" fill="#FFFFFF" fill-rule="evenodd" fill-opacity="1"/><path d="M2609 619C2609 609.059 2617.06 601 2627 601 2636.94 601 2645 609.059 2645 619 2645 628.941 2636.94 637 2627 637 2617.06 637 2609 628.941 2609 619Z" fill="#FFFFFF" fill-rule="evenodd" fill-opacity="1"/><path d="M1803 455C1803 445.059 1811.06 437 1821 437 1830.94 437 1839 445.059 1839 455 1839 464.941 1830.94 473 1821 473 1811.06 473 1803 464.941 1803 455Z" fill="#FFFFFF" fill-rule="evenodd" fill-opacity="1"/><path d="M1983 281C1983 271.059 1991.28 263 2001.5 263 2011.72 263 2020 271.059 2020 281 2020 290.941 2011.72 299 2001.5 299 1991.28 299 1983 290.941 1983 281Z" fill="#FFFFFF" fill-rule="evenodd" fill-opacity="1"/><path d="M1683 1191C1683 1184.93 1687.7 1180 1693.5 1180 1699.3 1180 1704 1184.93 1704 1191 1704 1197.08 1699.3 1202 1693.5 1202 1687.7 1202 1683 1197.08 1683 1191Z" fill="#FFFFFF" fill-rule="evenodd" fill-opacity="1"/><path d="M1755 1263C1755 1256.92 1759.7 1252 1765.5 1252 1771.3 1252 1776 1256.92 1776 1263 1776 1269.07 1771.3 1274 1765.5 1274 1759.7 1274 1755 1269.07 1755 1263Z" fill="#FFFFFF" fill-rule="evenodd" fill-opacity="1"/><path d="M1857 572C1857 565.925 1861.7 561 1867.5 561 1873.3 561 1878 565.925 1878 572 1878 578.075 1873.3 583 1867.5 583 1861.7 583 1857 578.075 1857 572Z" fill="#FFFFFF" fill-rule="evenodd" fill-opacity="1"/><path d="M1569 677C1569 670.925 1573.92 666 1580 666 1586.07 666 1591 670.925 1591 677 1591 683.075 1586.07 688 1580 688 1573.92 688 1569 683.075 1569 677Z" fill="#FFFFFF" fill-rule="evenodd" fill-opacity="1"/><path d="M1641 769C1641 757.402 1650.4 748 1662 748 1673.6 748 1683 757.402 1683 769 1683 780.598 1673.6 790 1662 790 1650.4 790 1641 780.598 1641 769Z" fill="#FFFFFF" fill-rule="evenodd" fill-opacity="1"/><path d="M1713 831C1713 824.925 1717.92 820 1724 820 1730.07 820 1735 824.925 1735 831 1735 837.075 1730.07 842 1724 842 1717.92 842 1713 837.075 1713 831Z" fill="#FFFFFF" fill-rule="evenodd" fill-opacity="1"/><path d="M1811 887.5C1811 881.701 1815.92 877 1822 877 1828.07 877 1833 881.701 1833 887.5 1833 893.299 1828.07 898 1822 898 1815.92 898 1811 893.299 1811 887.5Z" fill="#FFFFFF" fill-rule="evenodd" fill-opacity="1"/><path d="M2254 994C2254 987.925 2258.92 983 2265 983 2271.08 983 2276 987.925 2276 994 2276 1000.08 2271.08 1005 2265 1005 2258.92 1005 2254 1000.08 2254 994Z" fill="#FFFFFF" fill-rule="evenodd" fill-opacity="1"/><path d="M2231 1136C2231 1129.93 2235.92 1125 2242 1125 2248.08 1125 2253 1129.93 2253 1136 2253 1142.08 2248.08 1147 2242 1147 2235.92 1147 2231 1142.08 2231 1136Z" fill="#FFFFFF" fill-rule="evenodd" fill-opacity="1"/><path d="M2270 1015.5C2270 1009.7 2274.93 1005 2281 1005 2287.08 1005 2292 1009.7 2292 1015.5 2292 1021.3 2287.08 1026 2281 1026 2274.93 1026 2270 1021.3 2270 1015.5Z" fill="#FFFFFF" fill-rule="evenodd" fill-opacity="1"/><path d="M2541 527C2541 520.925 2545.7 516 2551.5 516 2557.3 516 2562 520.925 2562 527 2562 533.075 2557.3 538 2551.5 538 2545.7 538 2541 533.075 2541 527Z" fill="#FFFFFF" fill-rule="evenodd" fill-opacity="1"/><path d="M2274 750C2274 743.925 2278.92 739 2285 739 2291.08 739 2296 743.925 2296 750 2296 756.075 2291.08 761 2285 761 2278.92 761 2274 756.075 2274 750Z" fill="#FFFFFF" fill-rule="evenodd" fill-opacity="1"/><path d="M2248 1083C2248 1076.93 2252.93 1072 2259 1072 2265.08 1072 2270 1076.93 2270 1083 2270 1089.08 2265.08 1094 2259 1094 2252.93 1094 2248 1089.08 2248 1083Z" fill="#FFFFFF" fill-rule="evenodd" fill-opacity="1"/><path d="M2008 1263C2008 1256.92 2012.7 1252 2018.5 1252 2024.3 1252 2029 1256.92 2029 1263 2029 1269.07 2024.3 1274 2018.5 1274 2012.7 1274 2008 1269.07 2008 1263Z" fill="#FFFFFF" fill-rule="evenodd" fill-opacity="1"/><path d="M2040 1254.5C2040 1246.49 2046.04 1240 2053.5 1240 2060.96 1240 2067 1246.49 2067 1254.5 2067 1262.51 2060.96 1269 2053.5 1269 2046.04 1269 2040 1262.51 2040 1254.5Z" fill="#FFFFFF" fill-rule="evenodd" fill-opacity="1"/><path d="M2030 1317.5C2030 1309.49 2036.04 1303 2043.5 1303 2050.96 1303 2057 1309.49 2057 1317.5 2057 1325.51 2050.96 1332 2043.5 1332 2036.04 1332 2030 1325.51 2030 1317.5Z" fill="#FFFFFF" fill-rule="evenodd" fill-opacity="1"/><path d="M2659 1027C2659 1019.27 2665.04 1013 2672.5 1013 2679.96 1013 2686 1019.27 2686 1027 2686 1034.73 2679.96 1041 2672.5 1041 2665.04 1041 2659 1034.73 2659 1027Z" fill="#FFFFFF" fill-rule="evenodd" fill-opacity="1"/><path d="M2364 1355C2364 1348.93 2368.7 1344 2374.5 1344 2380.3 1344 2385 1348.93 2385 1355 2385 1361.08 2380.3 1366 2374.5 1366 2368.7 1366 2364 1361.08 2364 1355Z" fill="#FFFFFF" fill-rule="evenodd" fill-opacity="1"/><path d="M2615 823C2615 816.925 2619.92 812 2626 812 2632.08 812 2637 816.925 2637 823 2637 829.075 2632.08 834 2626 834 2619.92 834 2615 829.075 2615 823Z" fill="#FFFFFF" fill-rule="evenodd" fill-opacity="1"/><path d="M2438 895C2438 888.925 2442.92 884 2449 884 2455.07 884 2460 888.925 2460 895 2460 901.075 2455.07 906 2449 906 2442.92 906 2438 901.075 2438 895Z" fill="#FFFFFF" fill-rule="evenodd" fill-opacity="1"/><path d="M2510 1073.5C2510 1067.7 2514.92 1063 2521 1063 2527.08 1063 2532 1067.7 2532 1073.5 2532 1079.3 2527.08 1084 2521 1084 2514.92 1084 2510 1079.3 2510 1073.5Z" fill="#FFFFFF" fill-rule="evenodd" fill-opacity="1"/><path d="M2510 733.5C2510 727.701 2514.92 723 2521 723 2527.08 723 2532 727.701 2532 733.5 2532 739.299 2527.08 744 2521 744 2514.92 744 2510 739.299 2510 733.5Z" fill="#FFFFFF" fill-rule="evenodd" fill-opacity="1"/><path d="M2527 708C2527 701.925 2531.7 697 2537.5 697 2543.3 697 2548 701.925 2548 708 2548 714.075 2543.3 719 2537.5 719 2531.7 719 2527 714.075 2527 708Z" fill="#FFFFFF" fill-rule="evenodd" fill-opacity="1"/><path d="M2039 511C2039 501.059 2047.28 493 2057.5 493 2067.72 493 2076 501.059 2076 511 2076 520.941 2067.72 529 2057.5 529 2047.28 529 2039 520.941 2039 511Z" fill="#FFFFFF" fill-rule="evenodd" fill-opacity="1"/><path d="M2114 417C2114 410.925 2118.92 406 2125 406 2131.08 406 2136 410.925 2136 417 2136 423.075 2131.08 428 2125 428 2118.92 428 2114 423.075 2114 417Z" fill="#FFFFFF" fill-rule="evenodd" fill-opacity="1"/><path d="M2335 594C2335 587.925 2339.92 583 2346 583 2352.08 583 2357 587.925 2357 594 2357 600.075 2352.08 605 2346 605 2339.92 605 2335 600.075 2335 594Z" fill="#FFFFFF" fill-rule="evenodd" fill-opacity="1"/><path d="M2491 429C2491 422.925 2495.93 418 2502 418 2508.08 418 2513 422.925 2513 429 2513 435.075 2508.08 440 2502 440 2495.93 440 2491 435.075 2491 429Z" fill="#FFFFFF" fill-rule="evenodd" fill-opacity="1"/><path d="M1672 1083C1672 1076.93 1676.92 1072 1683 1072 1689.08 1072 1694 1076.93 1694 1083 1694 1089.08 1689.08 1094 1683 1094 1676.92 1094 1672 1089.08 1672 1083Z" fill="#FFFFFF" fill-rule="evenodd" fill-opacity="1"/><path d="M1704 1075C1704 1067.27 1710.27 1061 1718 1061 1725.73 1061 1732 1067.27 1732 1075 1732 1082.73 1725.73 1089 1718 1089 1710.27 1089 1704 1082.73 1704 1075Z" fill="#FFFFFF" fill-rule="evenodd" fill-opacity="1"/><path d="M1695 1138C1695 1130.27 1701.04 1124 1708.5 1124 1715.96 1124 1722 1130.27 1722 1138 1722 1145.73 1715.96 1152 1708.5 1152 1701.04 1152 1695 1145.73 1695 1138Z" fill="#FFFFFF" fill-rule="evenodd" fill-opacity="1"/><path d="M1761 1027C1761 1020.92 1765.92 1016 1772 1016 1778.08 1016 1783 1020.92 1783 1027 1783 1033.08 1778.08 1038 1772 1038 1765.92 1038 1761 1033.08 1761 1027Z" fill="#FFFFFF" fill-rule="evenodd" fill-opacity="1"/><path d="M1823 992.5C1823 984.492 1829.04 978 1836.5 978 1843.96 978 1850 984.492 1850 992.5 1850 1000.51 1843.96 1007 1836.5 1007 1829.04 1007 1823 1000.51 1823 992.5Z" fill="#FFFFFF" fill-rule="evenodd" fill-opacity="1"/><path d="M1755 1083C1755 1075.27 1761.27 1069 1769 1069 1776.73 1069 1783 1075.27 1783 1083 1783 1090.73 1776.73 1097 1769 1097 1761.27 1097 1755 1090.73 1755 1083Z" fill="#FFFFFF" fill-rule="evenodd" fill-opacity="1"/><path d="M1890 937.5C1890 931.701 1894.7 927 1900.5 927 1906.3 927 1911 931.701 1911 937.5 1911 943.299 1906.3 948 1900.5 948 1894.7 948 1890 943.299 1890 937.5Z" fill="#FFFFFF" fill-rule="evenodd" fill-opacity="1"/><path d="M2053 718C2053 710.268 2059.04 704 2066.5 704 2073.96 704 2080 710.268 2080 718 2080 725.732 2073.96 732 2066.5 732 2059.04 732 2053 725.732 2053 718Z" fill="#FFFFFF" fill-rule="evenodd" fill-opacity="1"/><path d="M1843 1041.5C1843 1033.49 1849.04 1027 1856.5 1027 1863.96 1027 1870 1033.49 1870 1041.5 1870 1049.51 1863.96 1056 1856.5 1056 1849.04 1056 1843 1049.51 1843 1041.5Z" fill="#FFFFFF" fill-rule="evenodd" fill-opacity="1"/><path d="M1774 1160.5C1774 1154.7 1778.93 1150 1785 1150 1791.08 1150 1796 1154.7 1796 1160.5 1796 1166.3 1791.08 1171 1785 1171 1778.93 1171 1774 1166.3 1774 1160.5Z" fill="#FFFFFF" fill-rule="evenodd" fill-opacity="1"/><path d="M1806 1152.5C1806 1144.49 1812.27 1138 1820 1138 1827.73 1138 1834 1144.49 1834 1152.5 1834 1160.51 1827.73 1167 1820 1167 1812.27 1167 1806 1160.51 1806 1152.5Z" fill="#FFFFFF" fill-rule="evenodd" fill-opacity="1"/><path d="M1797 1215C1797 1207.27 1803.04 1201 1810.5 1201 1817.96 1201 1824 1207.27 1824 1215 1824 1222.73 1817.96 1229 1810.5 1229 1803.04 1229 1797 1222.73 1797 1215Z" fill="#FFFFFF" fill-rule="evenodd" fill-opacity="1"/><path d="M1905 993.5C1905 987.701 1909.7 983 1915.5 983 1921.3 983 1926 987.701 1926 993.5 1926 999.299 1921.3 1004 1915.5 1004 1909.7 1004 1905 999.299 1905 993.5Z" fill="#FFFFFF" fill-rule="evenodd" fill-opacity="1"/><path d="M1937 985.5C1937 977.492 1943.04 971 1950.5 971 1957.96 971 1964 977.492 1964 985.5 1964 993.508 1957.96 1000 1950.5 1000 1943.04 1000 1937 993.508 1937 985.5Z" fill="#FFFFFF" fill-rule="evenodd" fill-opacity="1"/><path d="M1927 1048C1927 1040.27 1933.27 1034 1941 1034 1948.73 1034 1955 1040.27 1955 1048 1955 1055.73 1948.73 1062 1941 1062 1933.27 1062 1927 1055.73 1927 1048Z" fill="#FFFFFF" fill-rule="evenodd" fill-opacity="1"/><path d="M2033 812C2033 805.925 2037.7 801 2043.5 801 2049.3 801 2054 805.925 2054 812 2054 818.075 2049.3 823 2043.5 823 2037.7 823 2033 818.075 2033 812Z" fill="#FFFFFF" fill-rule="evenodd" fill-opacity="1"/><path d="M2065 804C2065 796.268 2071.04 790 2078.5 790 2085.96 790 2092 796.268 2092 804 2092 811.732 2085.96 818 2078.5 818 2071.04 818 2065 811.732 2065 804Z" fill="#FFFFFF" fill-rule="evenodd" fill-opacity="1"/><path d="M2055 866.5C2055 858.492 2061.04 852 2068.5 852 2075.96 852 2082 858.492 2082 866.5 2082 874.508 2075.96 881 2068.5 881 2061.04 881 2055 874.508 2055 866.5Z" fill="#FFFFFF" fill-rule="evenodd" fill-opacity="1"/><path d="M2054 956.5C2054 950.701 2058.92 946 2065 946 2071.08 946 2076 950.701 2076 956.5 2076 962.299 2071.08 967 2065 967 2058.92 967 2054 962.299 2054 956.5Z" fill="#FFFFFF" fill-rule="evenodd" fill-opacity="1"/><path d="M2005 920C2005 913.925 2009.93 909 2016 909 2022.08 909 2027 913.925 2027 920 2027 926.075 2022.08 931 2016 931 2009.93 931 2005 926.075 2005 920Z" fill="#FFFFFF" fill-rule="evenodd" fill-opacity="1"/><path d="M2003.19 987.03C1998.48 983.387 1997.61 976.612 2001.26 971.899 2004.9 967.187 2011.67 966.32 2016.39 969.964 2021.1 973.608 2021.97 980.382 2018.32 985.095 2014.68 989.808 2007.9 990.674 2003.19 987.03Z" fill="#FFFFFF" fill-rule="evenodd" fill-opacity="1"/><path d="M2066.15 924.64C2061.43 920.997 2060.57 914.222 2064.21 909.509 2067.86 904.797 2074.63 903.93 2079.34 907.574 2084.06 911.218 2084.92 917.992 2081.28 922.705 2077.63 927.418 2070.86 928.284 2066.15 924.64Z" fill="#FFFFFF" fill-rule="evenodd" fill-opacity="1"/><path d="M2261 722C2261 715.925 2265.92 711 2272 711 2278.07 711 2283 715.925 2283 722 2283 728.075 2278.07 733 2272 733 2265.92 733 2261 728.075 2261 722Z" fill="#FFFFFF" fill-rule="evenodd" fill-opacity="1"/><path d="M2293 717.5C2293 711.701 2297.93 707 2304 707 2310.08 707 2315 711.701 2315 717.5 2315 723.299 2310.08 728 2304 728 2297.93 728 2293 723.299 2293 717.5Z" fill="#FFFFFF" fill-rule="evenodd" fill-opacity="1"/><path d="M2346 1229.5C2346 1223.7 2350.92 1219 2357 1219 2363.08 1219 2368 1223.7 2368 1229.5 2368 1235.3 2363.08 1240 2357 1240 2350.92 1240 2346 1235.3 2346 1229.5Z" fill="#FFFFFF" fill-rule="evenodd" fill-opacity="1"/><path d="M2387 537.5C2387 531.701 2391.92 527 2398 527 2404.08 527 2409 531.701 2409 537.5 2409 543.299 2404.08 548 2398 548 2391.92 548 2387 543.299 2387 537.5Z" fill="#FFFFFF" fill-rule="evenodd" fill-opacity="1"/><path d="M2430 660.5C2430 652.492 2436.04 646 2443.5 646 2450.96 646 2457 652.492 2457 660.5 2457 668.508 2450.96 675 2443.5 675 2436.04 675 2430 668.508 2430 660.5Z" fill="#FFFFFF" fill-rule="evenodd" fill-opacity="1"/><path d="M2348 642.5C2348 634.492 2354.04 628 2361.5 628 2368.96 628 2375 634.492 2375 642.5 2375 650.508 2368.96 657 2361.5 657 2354.04 657 2348 650.508 2348 642.5Z" fill="#FFFFFF" fill-rule="evenodd" fill-opacity="1"/><path d="M2268 571C2268 563.268 2274.04 557 2281.5 557 2288.96 557 2295 563.268 2295 571 2295 578.732 2288.96 585 2281.5 585 2274.04 585 2268 578.732 2268 571Z" fill="#FFFFFF" fill-rule="evenodd" fill-opacity="1"/><path d="M2567 465.5C2567 459.701 2571.7 455 2577.5 455 2583.3 455 2588 459.701 2588 465.5 2588 471.299 2583.3 476 2577.5 476 2571.7 476 2567 471.299 2567 465.5Z" fill="#FFFFFF" fill-rule="evenodd" fill-opacity="1"/><path d="M2592 516C2592 509.925 2596.92 505 2603 505 2609.07 505 2614 509.925 2614 516 2614 522.075 2609.07 527 2603 527 2596.92 527 2592 522.075 2592 516Z" fill="#FFFFFF" fill-rule="evenodd" fill-opacity="1"/><path d="M2492 482C2492 475.925 2496.7 471 2502.5 471 2508.3 471 2513 475.925 2513 482 2513 488.075 2508.3 493 2502.5 493 2496.7 493 2492 488.075 2492 482Z" fill="#FFFFFF" fill-rule="evenodd" fill-opacity="1"/><path d="M2492 612C2492 605.925 2496.7 601 2502.5 601 2508.3 601 2513 605.925 2513 612 2513 618.075 2508.3 623 2502.5 623 2496.7 623 2492 618.075 2492 612Z" fill="#FFFFFF" fill-rule="evenodd" fill-opacity="1"/><path d="M2443 582C2443 575.925 2447.92 571 2454 571 2460.08 571 2465 575.925 2465 582 2465 588.075 2460.08 593 2454 593 2447.92 593 2443 588.075 2443 582Z" fill="#FFFFFF" fill-rule="evenodd" fill-opacity="1"/><path d="M2480 534.5C2480 528.701 2484.93 524 2491 524 2497.08 524 2502 528.701 2502 534.5 2502 540.299 2497.08 545 2491 545 2484.93 545 2480 540.299 2480 534.5Z" fill="#FFFFFF" fill-rule="evenodd" fill-opacity="1"/><path d="M2433 481C2433 474.925 2437.7 470 2443.5 470 2449.3 470 2454 474.925 2454 481 2454 487.075 2449.3 492 2443.5 492 2437.7 492 2433 487.075 2433 481Z" fill="#FFFFFF" fill-rule="evenodd" fill-opacity="1"/><path d="M2371 716.5C2371 710.701 2375.92 706 2382 706 2388.07 706 2393 710.701 2393 716.5 2393 722.299 2388.07 727 2382 727 2375.92 727 2371 722.299 2371 716.5Z" fill="#FFFFFF" fill-rule="evenodd" fill-opacity="1"/></g></g></svg>